<svg width="78" height="78" viewBox="0 0 78 78" fill="none" xmlns="http://www.w3.org/2000/svg">
<path d="M52 52L39 39L26 52" stroke="#E4E4E4" stroke-width="2" stroke-linecap="round" stroke-linejoin="round"/>
<path d="M39 39V68.25" stroke="#E4E4E4" stroke-width="5" stroke-linecap="round" stroke-linejoin="round"/>
<path d="M66.2675 59.7675C69.4373 58.0394 71.9414 55.3049 73.3846 51.9955C74.8277 48.6862 75.1277 44.9905 74.2372 41.4918C73.3466 37.993 71.3163 34.8904 68.4667 32.6737C65.617 30.457 62.1103 29.2524 58.5 29.25H54.405C53.4213 25.445 51.5878 21.9126 49.0423 18.9182C46.4969 15.9239 43.3057 13.5455 39.7088 11.962C36.1119 10.3784 32.2028 9.63093 28.2754 9.77563C24.348 9.92033 20.5045 10.9535 17.0338 12.7974C13.5632 14.6414 10.5557 17.2481 8.23751 20.4216C5.91932 23.5952 4.35074 27.253 3.64968 31.12C2.94862 34.9871 3.13333 38.9627 4.18994 42.7481C5.24654 46.5335 7.14753 50.0301 9.74999 52.975" stroke="#E4E4E4" stroke-width="5" stroke-linecap="round" stroke-linejoin="round"/>
<path d="M52 52L39 39L26 52" stroke="#E4E4E4" stroke-width="5" stroke-linecap="round" stroke-linejoin="round"/>
</svg>
